<?xml version="1.0" encoding="utf-8"?>
<!-- Generator: Adobe Illustrator 19.2.1, SVG Export Plug-In . SVG Version: 6.00 Build 0)  -->
<svg version="1.1"
	 id="svg2816" inkscape:version="0.48.2 r9819" sodipodi:docname="Royal_Mail.svg" xmlns:cc="http://creativecommons.org/ns#" xmlns:dc="http://purl.org/dc/elements/1.1/" xmlns:inkscape="http://www.inkscape.org/namespaces/inkscape" xmlns:rdf="http://www.w3.org/1999/02/22-rdf-syntax-ns#" xmlns:sodipodi="http://sodipodi.sourceforge.net/DTD/sodipodi-0.dtd" xmlns:svg="http://www.w3.org/2000/svg"
	 xmlns="http://www.w3.org/2000/svg" xmlns:xlink="http://www.w3.org/1999/xlink" x="0px" y="0px" viewBox="0 0 391 262.4" width="391" height="262.4"
	 style="enable-background:new 0 0 391 262.4;" xml:space="preserve">
<style type="text/css">
	.st0{fill:#EE2722;}
	.st1{fill:#FFFFFF;}
	.st2{fill:#F00020;}
	.st3{fill:#EE2722;stroke:#EE2722;stroke-width:1.300000e-002;}
	.st4{fill:#FDDD1C;}
	.st5{fill:#F6C345;enable-background:new    ;}
	.st6{fill:#C1CDD1;enable-background:new    ;}
	.st7{fill:#66A171;enable-background:new    ;}
	.st8{fill:#4C6CB4;enable-background:new    ;}
</style>
<sodipodi:namedview  bordercolor="#666666" borderopacity="1" gridtolerance="10" guidetolerance="10" id="namedview63" inkscape:current-layer="g3830" inkscape:cx="130.69684" inkscape:cy="3.0397084" inkscape:pageopacity="0" inkscape:pageshadow="2" inkscape:window-height="1028" inkscape:window-maximized="1" inkscape:window-width="1920" inkscape:window-x="-8" inkscape:window-y="-8" inkscape:zoom="2" objecttolerance="10" pagecolor="#ffffff" showgrid="false">
	</sodipodi:namedview>
<g id="g2826" transform="matrix(1.25,0,0,-1.25,-95.38375,1048.8213)" inkscape:groupmode="layer" inkscape:label="Inland_(2006current_version)">
	<path id="path3504" class="st0" d="M178.2,629.1h109v209.3h-109V629.1L178.2,629.1z"/>
	<g id="g3522" transform="translate(96.442,837.746)">
		<path id="path3524" class="st1" d="M84.4-2c0-2.7,0-201.3,0-204c2.6,0,101.1,0,103.7,0c0,2.7,0,201.3,0,204C185.5-2,87-2,84.4-2"
			/>
	</g>
	<path id="path3538" class="st2" d="M76.3,664.9h312.8v76.9H76.3V664.9z"/>
	<path id="path3540" class="st3" d="M76.3,741.8h312.8v-76.9H76.3V741.8z"/>
	<g id="g3542" transform="translate(129.514,816.322)">
		<path id="path3544" class="st4" d="M223.4-92.1c-0.7-0.1-1.2,0.4-1.1,1.1c0,0.6,0.5,1.1,1.1,1.1c0.6,0,1.1-0.5,1.1-1.1
			C224.5-91.6,224-92.1,223.4-92.1z M223.4-87.3c-2.1,0-3.7-1.7-3.7-3.6c0-2.1,1.6-3.7,3.7-3.6c2-0.1,3.6,1.6,3.6,3.6
			C227.1-89,225.5-87.3,223.4-87.3"/>
	</g>
	<g id="g3546" transform="translate(91.057,810.287)">
		<path id="path3548" class="st4" d="M61.8-117.4c-2.7-2.6-6.1-4-9.7-4c-3.7,0-7.2,1.4-9.7,4c-2.7,2.6-4.1,6-4,9.7
			c-0.1,7.6,6.1,13.7,13.7,13.7c3.6,0,7-1.4,9.7-4c2.5-2.6,3.9-6,4-9.7C65.7-111.4,64.3-114.9,61.8-117.4z M63.8-96.1
			c-3.2,3.1-7.3,4.9-11.7,4.9c-9.2-0.1-16.6-7.5-16.6-16.6c0-4.4,1.7-8.6,4.7-11.7c3.2-3.1,7.4-4.9,11.9-4.9
			c4.3,0.1,8.5,1.8,11.7,4.9c3.1,3.1,4.8,7.3,4.7,11.7C68.6-103.3,66.8-99.2,63.8-96.1"/>
	</g>
	<g id="g3550" transform="translate(89.199,810.287)">
		<path id="path3552" class="st4" d="M53.9-117.4c-2.7-0.1-5.1,1-6.9,2.7c-1.9,1.9-2.9,4.4-2.9,6.9c0,2.6,1.1,5,2.9,6.9
			c1.8,1.8,4.3,2.8,6.9,2.7c2.5,0.1,5-1,6.8-2.7c1.9-1.9,2.9-4.3,2.9-6.9C63.6-113.1,59.2-117.5,53.9-117.4z M62.7-98.8
			c-2.3,2.4-5.5,3.6-8.8,3.6c-3.4,0-6.6-1.3-8.9-3.6c-2.4-2.4-3.7-5.6-3.7-9c-0.1-3.4,1.2-6.5,3.7-8.9c2.3-2.3,5.5-3.7,8.9-3.7
			c6.9,0,12.5,5.7,12.6,12.6C66.5-104.4,65.1-101.2,62.7-98.8"/>
	</g>
	<g id="g3554" transform="translate(97.726,815.13)">
		<path id="path3556" class="st4" d="M89.8-97.1v-28.9c0-2.9-1.1-5.6-3.1-7.7c-2.1-1.9-4.8-3.1-7.7-3.1c-2.9,0-5.6,1.2-7.7,3.1
			c-1.4,1.5-2.4,3.3-2.7,5.3h-2.9c0.4-2.7,1.7-5.2,3.7-7.3c2.6-2.5,6.1-3.9,9.7-3.8c3.7-0.1,7.1,1.3,9.7,3.8c2.6,2.6,4,6.1,4,9.7
			v28.9H89.8"/>
	</g>
	<g id="g3558" transform="translate(95.654,809.48)">
		<path id="path3560" class="st4" d="M81.1-120.8c2.4,0,4.8,0.7,6.8,1.8v-1.3c0.1-3.7-3-6.8-6.8-6.8c-1.8,0-3.5,0.7-4.7,2
			c-0.7,0.7-1.2,1.5-1.6,2.4h-2.9c0.4-1.7,1.3-3.2,2.6-4.4c1.8-1.9,4.2-2.9,6.8-2.9c5.4,0,9.7,4.4,9.7,9.7v8.6
			c-0.5-1.1-1.3-2.2-2.2-3.1c-2.1-2.1-4.7-3.2-7.5-3.3c-2.8,0.1-5.5,1.2-7.7,3.3c-1.9,2-3.1,4.7-3.1,7.5v15.9h-2.7v-15.9
			c-0.1-3.6,1.3-7,3.8-9.5C74.1-119.4,77.5-120.9,81.1-120.8"/>
	</g>
	<g id="g3562" transform="translate(94.356,810.778)">
		<path id="path3564" class="st4" d="M75.6-115.4c1.8-1.8,4.2-2.8,6.8-2.9c5.3,0.1,9.7,4.7,9.7,10.2v15.3h-2.9v-15.3
			c0.1-3.9-3.1-7.3-6.8-7.3c-1.8,0-3.5,0.7-4.7,2c-1.3,1.3-2,3-2,4.7v15.9h-2.9v-15.9C72.7-111.1,73.7-113.5,75.6-115.4"/>
	</g>
	<path id="path3566" class="st4" d="M236.5,686.8h2.9v41.4h-2.9V686.8z"/>
	<path id="path3568" class="st4" d="M232.6,686.8h2.7v41.4h-2.7V686.8z"/>
	<path id="path3570" class="st4" d="M353.5,686.8h2.7v31.4h-2.7V686.8z"/>
	<path id="path3572" class="st4" d="M349.5,686.8h2.9v31.4h-2.9V686.8z"/>
	<path id="path3574" class="st4" d="M366.5,686.8h2.7v41.4h-2.7V686.8z"/>
	<path id="path3576" class="st4" d="M362.4,686.8h2.9v41.4h-2.9V686.8z"/>
	<g id="g3578" transform="translate(104.005,812.077)">
		<path id="path3580" class="st4" d="M116.2-109.9c0.1-5.2-4.1-9.4-9.3-9.3c-2.4,0-4.8,0.9-6.6,2.7c-1.8,1.7-2.7,4.1-2.7,6.6
			c0,2.5,1,4.8,2.7,6.6c1.8,1.8,4.1,2.8,6.6,2.8h9.3V-109.9z M98.3-101.3c-2.3-2.3-3.6-5.3-3.6-8.6c0.1-3.3,1.3-6.3,3.6-8.6
			c2.3-2.4,5.4-3.7,8.6-3.7c6.8,0,12.3,5.5,12.2,12.2v12.2h-12.2C103.7-97.7,100.6-99,98.3-101.3"/>
	</g>
	<g id="g3582" transform="translate(102.215,815.165)">
		<path id="path3584" class="st4" d="M108.7-96.9c-8.9,0.1-16.1-7.2-16.1-16.1c0-4.3,1.6-8.4,4.7-11.5c3-3,7.1-4.7,11.3-4.7
			c3.5,0.1,6.7,1.1,9.3,3.1v-2.2h2.9v10c-0.6-1.5-1.6-2.9-2.7-4.2c-2.6-2.4-5.9-3.8-9.5-3.8c-3.5,0-6.8,1.4-9.3,3.8
			c-2.6,2.6-3.9,5.9-4,9.5c0.1,7.3,6.1,13.3,13.3,13.3H122v-28.7h2.9v31.4H108.7"/>
	</g>
	<g id="g3586" transform="translate(126.46,812.077)">
		<path id="path3588" class="st4" d="M210.6-109.9c-0.1-5.2-4.3-9.4-9.5-9.3c-2.4,0-4.8,0.9-6.6,2.7c-1.7,1.7-2.7,4.1-2.7,6.6
			c0,2.5,1,4.8,2.7,6.6c1.8,1.8,4.1,2.8,6.6,2.8h9.5V-109.9z M192.5-101.3c-2.3-2.3-3.6-5.3-3.5-8.6c-0.1-3.3,1.2-6.3,3.5-8.6
			c2.3-2.4,5.4-3.7,8.6-3.7c6.8,0,12.3,5.5,12.2,12.2v12.2h-12.2C197.9-97.7,194.8-99,192.5-101.3"/>
	</g>
	<g id="g3590" transform="translate(124.635,815.165)">
		<path id="path3592" class="st4" d="M202.9-96.9c-8.8,0.1-16.1-7.2-16.1-16.1c0-4.3,1.6-8.4,4.7-11.5c3-3,7.1-4.7,11.3-4.7
			c3.5,0.1,6.7,1.1,9.5,3.1v-2.2h2.7v10c-0.6-1.5-1.6-2.9-2.7-4.2c-2.5-2.4-5.9-3.8-9.5-3.8c-3.5,0-6.8,1.4-9.3,3.8
			c-2.5,2.6-3.9,5.9-3.8,9.5c-0.1,7.3,5.9,13.3,13.1,13.3h13.3v-28.7h2.9v31.4H202.9"/>
	</g>
	<g id="g3594" transform="translate(84.007,811.971)">
		<path id="path3596" class="st4" d="M32.1-110.3c1.5,0.6,2.9,1.6,4.2,2.9c2.7,2.6,4.3,6.5,4.2,10.2c0.1,3.7-1.4,7.2-4,9.7
			c-2.4,2.6-5.7,3.9-9.3,3.8H12.6v-41.4h2.9v38.7h11.7c2.8-0.1,5.4-1.1,7.3-3.1c2.1-2,3.2-4.8,3.3-7.7c0-2.9-1.4-6.1-3.5-8.2
			c-2-2-4.4-3-7.1-3.1l11.7-16.6h3.7L32.1-110.3"/>
	</g>
	<g id="g3598" transform="translate(82.637,812.533)">
		<path id="path3600" class="st4" d="M26.4-108h2.2c6.1,0.1,9.5,6,9.5,10.2c0,2.6-1.1,5.1-2.9,6.9c-1.7,1.7-4,2.7-6.6,2.7H18v-37.6
			h2.7V-91h7.9c1.8,0,3.3-0.6,4.6-1.8c1.3-1.3,2-3.1,2-4.9c0-3-2.3-7.3-6.6-7.3h-7.7l14.6-20.6H39L26.4-108"/>
	</g>
	<g id="g3602" transform="translate(119.794,817.094)">
		<path id="path3604" class="st4" d="M182.6-88.8h-2.9l7.3-41.4h2.9L182.6-88.8"/>
	</g>
	<g id="g3606" transform="translate(116.145,812.32)">
		<path id="path3608" class="st4" d="M167.2-108.9L155.9-84h-3.3l14.6-31.6L181.8-84h-3.1L167.2-108.9"/>
	</g>
	<g id="g3610" transform="translate(111.095,809.13)">
		<path id="path3612" class="st4" d="M146-122.3h2.9l7.5,41.4h-2.9L146-122.3"/>
	</g>
	<g id="g3614" transform="translate(116.145,810.533)">
		<path id="path3616" class="st4" d="M167.2-116.4l-15.2,32.7l-7.1-40h2.9l5.5,30.5l13.9-30l13.9,29.9l5.5-30.5h2.9l-7.1,40
			L167.2-116.4"/>
	</g>
</g>
<g>
	<polyline class="st5" points="235.4,67.7 235.5,67.3 229.7,53.6 199.5,53.3 199.5,40.4 192.6,40.4 192.5,54.2 162.4,53.9 159.9,61 
		159.9,62.9 159.9,61 159.4,62.3 156.6,67.3 162.4,88.7 161.8,97.2 229.7,96.8 229.7,84.1 235.4,67.7 	"/>
	<path class="st5" d="M192.6,26.2h6.9c-0.3-0.2-0.5-0.5-0.8-0.7c-1.2-1.2-1-2.6-0.5-3.1c0.5-0.5,1.8,0.1,3,1.3
		c0.3,0.3,0.6,0.6,0.8,0.9v-8.5c-0.2,0.3-0.4,0.6-0.7,0.9c-1.2,1.2-2.6,1.8-3,1.3c-0.5-0.5,0.1-1.9,1.3-3.1c0.3-0.3,0.6-0.6,0.9-0.8
		H192c0.3,0.2,0.6,0.5,0.8,0.7c1.2,1.2,1.8,2.6,1.3,3.1c-0.5,0.5-1.8-0.1-3-1.3c-0.3-0.3-0.6-0.6-0.8-0.9v8.5
		c0.2-0.3,0.5-0.6,0.7-0.8c1.2-1.2,2.5-1.8,3-1.3c0.5,0.5,0.7,1.9-0.5,3.1C193.2,25.7,192.9,26,192.6,26.2L192.6,26.2z"/>
	<path class="st5" d="M189.1,35.5c0.7,3.2,3.5,5.7,6.9,5.7c3.4,0,6.2-2.4,6.9-5.7H189.1L189.1,35.5z"/>
	<path class="st5" d="M202.9,32.7c-0.6-2.8-2.8-5-5.5-5.5v5.5H202.9L202.9,32.7z"/>
	<path class="st5" d="M194.6,27.1c-2.7,0.6-4.9,2.8-5.5,5.5h5.5V27.1L194.6,27.1z"/>
	<path class="st6" d="M193.9,44.3c0-1.2,1-2.1,2.1-2.1s2.1,1,2.1,2.1c0,1.2-1,2.1-2.1,2.1S193.9,45.5,193.9,44.3L193.9,44.3z"/>
	<path class="st6" d="M193.9,49.6c0-1.2,1-2.1,2.1-2.1s2.1,1,2.1,2.1c0,1.2-1,2.1-2.1,2.1S193.9,50.8,193.9,49.6L193.9,49.6z"/>
	<path class="st6" d="M193.9,55c0-1.2,1-2.1,2.1-2.1s2.1,1,2.1,2.1c0,1.2-1,2.1-2.1,2.1S193.9,56.2,193.9,55L193.9,55z"/>
	<path class="st6" d="M193.9,60.4c0-1.2,1-2.1,2.1-2.1s2.1,1,2.1,2.1c0,1.2-1,2.1-2.1,2.1C194.9,62.6,193.9,61.6,193.9,60.4
		L193.9,60.4z"/>
	<path class="st6" d="M193.7,72.4c0-1.3,1-2.4,2.3-2.4c1.3,0,2.3,1.1,2.3,2.4c0,1.3-1,2.4-2.3,2.4C194.7,74.8,193.7,73.7,193.7,72.4
		L193.7,72.4z"/>
	<path class="st6" d="M231.4,79.2c0.8,0.3,1.9-0.6,2.3-2c0.5-1.4,0.2-2.8-0.6-3.1c-0.8-0.3-1.9,0.6-2.3,2
		C230.2,77.6,230.5,79,231.4,79.2L231.4,79.2z"/>
	<path class="st6" d="M160.7,79.2c-0.8,0.3-1.9-0.6-2.3-2c-0.5-1.4-0.2-2.8,0.6-3.1c0.8-0.3,1.9,0.6,2.3,2
		C161.8,77.6,161.6,79,160.7,79.2L160.7,79.2z"/>
	<path class="st6" d="M203.9,38.8c0-1.7,1.4-3.1,3.1-3.1c1.7,0,3.1,1.4,3.1,3.1c0,1.7-1.4,3.1-3.1,3.1
		C205.3,42,203.9,40.5,203.9,38.8L203.9,38.8z"/>
	<path class="st6" d="M211.2,35.6c0-1.7,1.4-3.1,3.1-3.1c1.7,0,3.1,1.4,3.1,3.1c0,1.7-1.4,3.1-3.1,3.1
		C212.6,38.8,211.2,37.4,211.2,35.6L211.2,35.6z"/>
	<path class="st6" d="M218.7,32.9c0-1.7,1.4-3.1,3.1-3.1c1.7,0,3.1,1.4,3.1,3.1c0,1.7-1.4,3.1-3.1,3.1
		C220.1,36.1,218.7,34.7,218.7,32.9L218.7,32.9z"/>
	<path class="st6" d="M226.5,32.7c0-1.7,1.4-3.1,3.1-3.1c1.7,0,3.1,1.4,3.1,3.1c0,1.7-1.4,3.1-3.1,3.1
		C227.9,35.8,226.5,34.4,226.5,32.7L226.5,32.7z"/>
	<path class="st6" d="M233.7,35.8c0-1.7,1.4-3.1,3.1-3.1c1.7,0,3.1,1.4,3.1,3.1c0,1.7-1.4,3.1-3.1,3.1
		C235.1,38.9,233.7,37.5,233.7,35.8L233.7,35.8z"/>
	<path class="st6" d="M238.8,42c0-1.7,1.4-3.1,3.1-3.1c1.7,0,3.1,1.4,3.1,3.1c0,1.7-1.4,3.1-3.1,3.1C240.2,45.1,238.8,43.7,238.8,42
		L238.8,42z"/>
	<path class="st6" d="M240.6,49.7c0-1.7,1.4-3.1,3.1-3.1c1.7,0,3.1,1.4,3.1,3.1c0,1.7-1.4,3.1-3.1,3.1
		C242,52.8,240.6,51.4,240.6,49.7L240.6,49.7z"/>
	<path class="st6" d="M240.2,57.5c0-1.7,1.4-3.1,3.1-3.1c1.7,0,3.1,1.4,3.1,3.1c0,1.7-1.4,3.1-3.1,3.1
		C241.6,60.7,240.2,59.3,240.2,57.5L240.2,57.5z"/>
	<path class="st6" d="M238.2,65.1c0-1.7,1.4-3.1,3.1-3.1c1.7,0,3.1,1.4,3.1,3.1c0,1.7-1.4,3.1-3.1,3.1
		C239.6,68.2,238.2,66.8,238.2,65.1L238.2,65.1z"/>
	<path class="st6" d="M181.9,38.8c0-1.7,1.4-3.1,3.1-3.1c1.7,0,3.1,1.4,3.1,3.1c0,1.7-1.4,3.1-3.1,3.1
		C183.3,42,181.9,40.5,181.9,38.8L181.9,38.8z"/>
	<path class="st6" d="M174.7,35.6c0-1.7,1.4-3.1,3.1-3.1c1.7,0,3.1,1.4,3.1,3.1c0,1.7-1.4,3.1-3.1,3.1
		C176.1,38.8,174.7,37.4,174.7,35.6L174.7,35.6z"/>
	<path class="st6" d="M167.2,32.9c0-1.7,1.4-3.1,3.1-3.1c1.7,0,3.1,1.4,3.1,3.1c0,1.7-1.4,3.1-3.1,3.1
		C168.6,36.1,167.2,34.7,167.2,32.9L167.2,32.9z"/>
	<path class="st6" d="M159.3,32.7c0-1.7,1.4-3.1,3.1-3.1c1.7,0,3.1,1.4,3.1,3.1c0,1.7-1.4,3.1-3.1,3.1
		C160.7,35.8,159.3,34.4,159.3,32.7L159.3,32.7z"/>
	<path class="st6" d="M152.1,35.8c0-1.7,1.4-3.1,3.1-3.1c1.7,0,3.1,1.4,3.1,3.1c0,1.7-1.4,3.1-3.1,3.1
		C153.5,38.9,152.1,37.5,152.1,35.8L152.1,35.8z"/>
	<path class="st6" d="M147.1,42c0-1.7,1.4-3.1,3.1-3.1c1.7,0,3.1,1.4,3.1,3.1c0,1.7-1.4,3.1-3.1,3.1C148.5,45.1,147.1,43.7,147.1,42
		L147.1,42z"/>
	<path class="st6" d="M145.2,49.7c0-1.7,1.4-3.1,3.1-3.1c1.7,0,3.1,1.4,3.1,3.1c0,1.7-1.4,3.1-3.1,3.1
		C146.6,52.8,145.2,51.4,145.2,49.7L145.2,49.7z"/>
	<path class="st6" d="M145.7,57.5c0-1.7,1.4-3.1,3.1-3.1c1.7,0,3.1,1.4,3.1,3.1c0,1.7-1.4,3.1-3.1,3.1
		C147,60.7,145.7,59.3,145.7,57.5L145.7,57.5z"/>
	<path class="st6" d="M147.7,65.1c0-1.7,1.4-3.1,3.1-3.1c1.7,0,3.1,1.4,3.1,3.1c0,1.7-1.4,3.1-3.1,3.1
		C149.1,68.2,147.7,66.8,147.7,65.1L147.7,65.1z"/>
	<path class="st3" d="M168.9,67.7c-0.9,0.6-1.9,4.2,1.5,7c0.7-1.5,1.4-1.7,2.1-1.5c0.7,0.2,1.2,0.5,1.6,2l4.7-0.4
		c0.1-1.2,0.6-2,1.7-2.3c1-0.2,1.9,0.3,2.7,1.5c0.7-2,0.8-4.7,0.1-6.2l4.8,0v10.2c2.3-3.9,5.5-4.4,5.8-1.1c0.3,2.9-3.3,6.1-6.6,6.1
		c-3.3,0-5.7-1.4-8-5.1l-4.7,0.4c-0.8,2.8-5.3,5.6-9.4,4.1c-2-0.7-3.4-1.8-2.9-3c0.5-1.5,2.4-0.3,3.8,0.3c0,0-2-6.5-2.9-9.3
		c-0.3,0.8-1.4,3.5-2.9,2.7c-0.8-0.5-0.3-2.4,0.6-5.1L168.9,67.7L168.9,67.7z M172.4,67.7c0.3,0.7,0.6,1.4,1,2.2
		c-1-1.2-1.8-1.8-2.4-2.2L172.4,67.7L172.4,67.7z M179.3,67.7c-0.6,0.6-1.1,1.4-1.3,1.9c0.1-0.7,0.3-1.3,0.4-1.9L179.3,67.7
		L179.3,67.7z M192.9,67.7c0.5,0.9,0.7,1.7,0.3,2.1c-0.7,0.6-2.5-0.1-4.1-1.6c-0.2-0.2-0.3-0.3-0.5-0.5L192.9,67.7L192.9,67.7z
		 M203.5,67.7c-0.2,0.2-0.3,0.3-0.5,0.5c-1.6,1.5-3.4,2.2-4.1,1.6c-0.4-0.4-0.3-1.2,0.3-2.1L203.5,67.7L203.5,67.7z M208.8,67.7
		c-0.7,1.5-0.6,4.1,0.1,6.2c0.8-1.2,1.7-1.6,2.7-1.5c1.1,0.3,1.6,1.1,1.7,2.3l4.7,0.4c0.4-1.4,0.9-1.8,1.6-2c0.7-0.2,1.4,0,2.1,1.5
		c3.3-2.7,2.4-6.3,1.5-7h7.9c0.9,2.8,1.5,4.7,0.6,5.2c-1.5,0.9-2.7-1.9-2.9-2.7c-0.9,2.8-2.9,9.3-2.9,9.3c1.4-0.5,3.2-1.7,3.8-0.3
		c0.5,1.3-0.9,2.3-2.9,3c-4.1,1.5-8.5-1.3-9.4-4.1l-4.7-0.4c-2.3,3.7-4.7,5.1-8,5.1s-6.9-3.2-6.6-6.1c0.3-3.3,3.6-2.8,5.8,1.1V67.7
		L208.8,67.7L208.8,67.7z M213.7,67.7c0.1,0.6,0.2,1.2,0.4,1.9c-0.2-0.5-0.7-1.3-1.3-1.9L213.7,67.7L213.7,67.7z M221.1,67.7
		c-0.7,0.3-1.5,1-2.4,2.2c0.4-0.7,0.7-1.5,1-2.2L221.1,67.7L221.1,67.7z"/>
	<path class="st3" d="M235.5,67.3c0,0,3.9-5.4,4.3-14.7c0.6-13.9-8.9-16.2-13.1-16.2c-4.4-0.1-6.5,1.1-10.6,2.7
		c-3.9,1.5-6.7,3.7-13.8,4.8l0,4.2c7.9-0.3,15.4-5.9,22.8-5.9c8.5-0.1,9.6,8.5,9.5,11.1c-0.1,2.6-0.2,5.4-2,9.1"/>
	<path class="st3" d="M232.7,62.3c-0.3-2.1-1.7-8.5-4.2-9.7c-6.4-2.6-12.7-0.4-12.7-0.4c-7.3-2.3-13.5-2.3-13.5-2.3l0-2
		c-0.2,0-0.5,0-0.7,0l-0.6-4c0.5-0.1,0.9-0.1,1.3-0.2l0-2.2l-2.9-1.2v22.8h-6.8V40.4l-2.9,1.2l0,2.2c0.4,0.1,0.8,0.1,1.3,0.2l-0.5,4
		c-0.2,0-0.5,0-0.7,0l0,2c0,0-6.2,0-13.5,2.3c0,0-6.4-2.2-12.7,0.4c-2.3,1.1-3.8,7.5-4.2,9.7l-2.8,5l5-1.5c-0.2,0.7-0.5,1.3-0.7,1.9
		v0h7.9c0,0,0.1,0,0.1-0.1c0.5-0.3,1.2-0.4,2,0.1l1.4,0c-1.8-4.6-1-8.4,2.2-11c3.9,3.6,4.7,5.6,3.8,11l0.9,0
		c0.7-0.7,1.5-1.2,2.5-1.2c0.7,0,1.2,0.5,1.5,1.2h4.8v-0.6c0.1,0.2,0.3,0.4,0.5,0.6l4.3,0c-0.3-0.6-0.8-1.2-1.4-1.7
		c-0.4-0.4-0.8-0.7-1.2-1h11.5c-0.4,0.3-0.8,0.6-1.2,1c-0.6,0.6-1.1,1.2-1.4,1.7h4.3c0.2-0.2,0.3-0.4,0.5-0.6v0.6l4.8,0
		c0.3-0.7,0.8-1.1,1.5-1.2c1-0.1,1.8,0.5,2.5,1.2l0.9,0c-0.9-5.4-0.1-7.3,3.8-11c3.2,2.5,4,6.4,2.2,11l1.4,0c0.8-0.4,1.5-0.3,2-0.1
		c0,0,0.1,0,0.1,0.1l7.9,0c-0.2-0.6-0.4-1.3-0.7-1.9l5,1.5"/>
	<path class="st5" d="M176,39.1c-4.1-1.6-6.2-2.8-10.6-2.7c-4.2,0-13.6,2.4-13.1,16.2c0.4,9.3,4.3,14.7,4.3,14.7l2.8-5
		c-1.8-3.7-1.9-6.5-2-9.1c-0.1-2.6,1-11.2,9.5-11.1c7.4,0.1,14.9,5.6,22.8,5.9l0-4.2C182.7,42.8,179.9,40.6,176,39.1z"/>
	<path class="st3" d="M190.5,48.1l0.5-4c-0.5-0.1-0.9-0.1-1.3-0.2l0,4.2C190,48,190.3,48.1,190.5,48.1z"/>
	<path class="st3" d="M201.6,48.1c0.2,0,0.5,0,0.7,0l0-4.2c-0.4,0.1-0.8,0.1-1.3,0.2L201.6,48.1z"/>
	<path class="st3" d="M229.5,88.7l0.6-5.9c0,0-2.2,2.3-6,2.3c-3.8-0.1-7.2-2.9-8.7-5.1c-0.3-0.5-0.7-0.5-1.1,0
		c-2.3,3.1-4.4,5.4-10,5.4c-5.6,0-7.7-3.5-8.4-4.5c-0.7,1-2.8,4.5-8.4,4.5c-5.6,0-7.7-2.3-10-5.4c-0.3-0.6-0.8-0.5-1.1,0
		c-1.5,2.2-4.9,5-8.7,5.1c-3.8,0.1-6-2.3-6-2.3l0.6,5.9H229.5L229.5,88.7z"/>
	<path class="st6" d="M163.6,105c-2.4,0-4.3-1.9-4.3-4.1c0-2.3,1.9-4.1,4.3-4.1h64.6c2.4,0,4.4,1.9,4.4,4.1c0,2.3-1.9,4.1-4.4,4.1
		H163.6L163.6,105z"/>
	<polygon class="st3" points="168.2,95.1 168.2,90.4 162.4,90.4 160.4,92.7 162.4,95.1 	"/>
	<path class="st7" d="M173.4,92.8c0-1.4,2.3-2.6,5.1-2.6c2.8,0,5.1,1.1,5.1,2.6c0,1.4-2.3,2.6-5.1,2.6
		C175.7,95.3,173.4,94.2,173.4,92.8L173.4,92.8z"/>
	<polygon class="st3" points="223.7,95.1 223.7,90.4 229.5,90.4 231.5,92.7 229.5,95.1 	"/>
	<path class="st7" d="M208.4,92.8c0-1.4,2.3-2.6,5.1-2.6s5.1,1.1,5.1,2.6c0,1.4-2.3,2.6-5.1,2.6C210.6,95.3,208.4,94.2,208.4,92.8
		L208.4,92.8z"/>
	<polygon class="st8" points="189.6,90.4 202.3,90.4 202.3,95.1 189.6,95.1 	"/>
	<path class="st5" d="M216.1,39.1c4.1-1.6,6.2-2.8,10.6-2.7c4.2,0,13.6,2.4,13.1,16.2c-0.4,9.3-4.3,14.7-4.3,14.7l-2.8-5
		c1.8-3.7,1.9-6.5,2-9.1c0.1-2.6-1-11.2-9.5-11.1c-7.4,0.1-14.9,5.6-22.8,5.9l0-4.2C209.4,42.9,212.2,40.7,216.1,39.1z"/>
</g>
</svg>
